<svg width="398" height="140" viewBox="0 0 398 140" fill="none" xmlns="http://www.w3.org/2000/svg">
<g clip-path="url(#clip0_1196_149)">
<path d="M287.53 27.3823C287.997 27.8911 288.357 28.5059 288.612 29.2267C288.866 29.9474 288.993 30.6682 288.993 31.389C287.552 31.389 286.47 31.6434 285.75 32.1522C285.071 32.661 284.732 33.4877 284.732 34.6325V64.5235C284.732 65.7107 285.05 66.5375 285.686 67.0038C286.364 67.4702 287.467 67.7034 288.993 67.7034C288.993 68.4666 288.866 69.2086 288.612 69.9294C288.357 70.6501 287.997 71.2649 287.53 71.7737H271.758C271.334 71.2649 270.995 70.6501 270.741 69.9294C270.486 69.2086 270.359 68.4666 270.359 67.7034C271.843 67.7034 272.945 67.4702 273.666 67.0038C274.387 66.4951 274.747 65.6683 274.747 64.5235V38.194L263.936 65.4775C263.384 66.7919 262.621 67.7034 261.646 68.2122C260.671 68.6786 259.399 68.9118 257.83 68.9118L245.238 38.194V64.5235C245.238 65.6683 245.641 66.4951 246.446 67.0038C247.294 67.4702 248.566 67.7034 250.262 67.7034C250.262 68.4666 250.135 69.2086 249.88 69.9294C249.626 70.6501 249.287 71.2649 248.863 71.7737H235.635C235.211 71.2649 234.871 70.6501 234.617 69.9294C234.363 69.2086 234.235 68.4666 234.235 67.7034C235.804 67.7034 236.949 67.4702 237.67 67.0038C238.39 66.4951 238.751 65.6683 238.751 64.5235V34.6325C238.751 33.4877 238.369 32.661 237.606 32.1522C236.843 31.6434 235.719 31.389 234.235 31.389C234.235 30.6682 234.363 29.9474 234.617 29.2267C234.871 28.5059 235.232 27.8911 235.698 27.3823H245.683C247.676 27.3823 249.266 27.6791 250.453 28.2727C251.64 28.8239 252.594 29.9474 253.315 31.6434L260.056 48.2424L262.6 56.1286L265.017 48.2424L273.03 27.3823H287.53Z" fill="white"/>
<path d="M307.696 72.6006C303.032 72.6006 299.301 71.1379 296.503 68.2124C293.705 65.2445 292.306 61.0258 292.306 55.5564C292.306 51.6557 292.963 48.3275 294.277 45.5716C295.634 42.8156 297.521 40.7381 299.937 39.339C302.354 37.9398 305.152 37.2402 308.332 37.2402C311.385 37.2402 314.056 37.9186 316.346 39.2754C318.677 40.5897 320.479 42.5401 321.751 45.1264C323.066 47.7127 323.723 50.8502 323.723 54.5388C323.723 58.3971 323.045 61.683 321.688 64.3965C320.373 67.11 318.508 69.1663 316.091 70.5655C313.674 71.9222 310.876 72.6006 307.696 72.6006ZM308.205 68.0216C309.689 68.0216 310.791 67.1736 311.512 65.4777C312.233 63.7817 312.593 60.6442 312.593 56.0652C312.593 52.2069 312.402 49.239 312.021 47.1615C311.639 45.084 311.109 43.6636 310.431 42.9004C309.753 42.1373 308.883 41.7557 307.823 41.7557C306.339 41.7557 305.216 42.6037 304.453 44.2996C303.732 45.9955 303.372 49.1754 303.372 53.8393C303.372 57.6551 303.562 60.6018 303.944 62.6794C304.326 64.7145 304.856 66.1136 305.534 66.8768C306.255 67.64 307.145 68.0216 308.205 68.0216Z" fill="white"/>
<path d="M342.414 72.6006C337.75 72.6006 334.019 71.1379 331.221 68.2124C328.422 65.2445 327.023 61.0258 327.023 55.5564C327.023 51.6557 327.681 48.3275 328.995 45.5716C330.352 42.8156 332.238 40.7381 334.655 39.339C337.072 37.9398 339.87 37.2402 343.05 37.2402C346.103 37.2402 348.774 37.9186 351.063 39.2754C353.395 40.5897 355.197 42.5401 356.469 45.1264C357.784 47.7127 358.441 50.8502 358.441 54.5388C358.441 58.3971 357.762 61.683 356.406 64.3965C355.091 67.11 353.226 69.1663 350.809 70.5655C348.392 71.9222 345.594 72.6006 342.414 72.6006ZM342.923 68.0216C344.407 68.0216 345.509 67.1736 346.23 65.4777C346.951 63.7817 347.311 60.6442 347.311 56.0652C347.311 52.2069 347.12 49.239 346.739 47.1615C346.357 45.084 345.827 43.6636 345.149 42.9004C344.47 42.1373 343.601 41.7557 342.541 41.7557C341.057 41.7557 339.934 42.6037 339.171 44.2996C338.45 45.9955 338.089 49.1754 338.089 53.8393C338.089 57.6551 338.28 60.6018 338.662 62.6794C339.043 64.7145 339.573 66.1136 340.252 66.8768C340.972 67.64 341.863 68.0216 342.923 68.0216Z" fill="white"/>
<path d="M397.738 70.0567C397.102 70.6927 395.957 71.2015 394.303 71.5831C392.692 71.9647 391.145 72.1555 389.661 72.1555C387.837 72.1555 386.481 71.8163 385.59 71.1379C384.742 70.4595 384.318 69.3783 384.318 67.8944V48.0519C384.318 46.3983 383.958 45.2112 383.237 44.4904C382.516 43.7696 381.562 43.4092 380.375 43.4092C378.637 43.4092 377.174 44.1088 375.987 45.508V64.9053C375.987 66.1349 376.241 67.0252 376.75 67.5764C377.301 68.1276 378.213 68.4032 379.485 68.4032C379.485 69.6751 378.997 70.7987 378.022 71.7739H363.585C362.568 70.7563 362.059 69.6327 362.059 68.4032C363.331 68.4032 364.243 68.1276 364.794 67.5764C365.345 67.0252 365.621 66.1349 365.621 64.9053V46.3347C365.621 45.19 365.303 44.3844 364.667 43.918C364.031 43.4092 362.928 43.1548 361.36 43.1548V40.2929C362.716 39.5298 364.624 38.8302 367.083 38.1942C369.585 37.5582 371.472 37.2402 372.744 37.2402C373.719 37.2402 374.461 37.5582 374.969 38.1942C375.521 38.7878 375.839 39.9325 375.923 41.6285C377.026 40.2717 378.404 39.2118 380.057 38.4486C381.711 37.643 383.576 37.2402 385.654 37.2402C388.707 37.2402 390.954 38.0246 392.395 39.5934C393.879 41.1197 394.621 43.6424 394.621 47.1615V64.5237C394.621 66.6012 395.639 67.8308 397.674 68.2124L397.738 70.0567Z" fill="white"/>
</g>
<g clip-path="url(#clip1_1196_149)">
<path d="M17.8074 26.8896C24.3368 26.8896 29.0006 28.0768 31.7989 30.4511C34.5972 32.8254 35.9964 36.4293 35.9964 41.2628C35.9964 44.1035 35.2968 46.6474 33.8976 48.8945C32.4985 51.0992 30.3786 52.8376 27.5379 54.1095C24.6972 55.3815 21.2205 56.0175 17.1078 56.0175H14.4367V61.6141C14.4367 63.31 14.6275 64.582 15.0091 65.43C15.3907 66.2779 16.0478 66.8715 16.9806 67.2107C17.9558 67.5075 19.4185 67.6559 21.3689 67.6559C21.3689 68.4191 21.2417 69.161 20.9873 69.8818C20.7329 70.6026 20.3937 71.2174 19.9697 71.7261H1.46275C0.996366 71.2174 0.635978 70.6026 0.381587 69.8818C0.127196 69.161 0 68.4191 0 67.6559C1.44155 67.6559 2.45912 67.4227 3.0527 66.9563C3.68867 66.4475 4.00666 65.6207 4.00666 64.476V34.585C4.00666 33.3978 3.68867 32.5711 3.0527 32.1047C2.45912 31.5959 1.44155 31.3415 0 31.3415C0 29.8999 0.466384 28.5644 1.39915 27.3348C4.23985 27.3348 8.09812 27.2288 12.974 27.0168C15.4331 26.932 17.0442 26.8896 17.8074 26.8896ZM24.9303 41.072C24.9303 38.3585 24.2944 36.1537 23.0224 34.4578C21.7929 32.7619 19.7153 31.9139 16.7898 31.9139C15.8571 31.9139 15.0727 31.9987 14.4367 32.1683V50.8024C14.8183 50.8872 15.3695 50.9296 16.0902 50.9296C19.6093 50.9296 21.9624 49.9969 23.1496 48.1313C24.3368 46.2658 24.9303 43.9127 24.9303 41.072Z" fill="white"/>
<path d="M52.8856 26.7624C52.8856 28.5855 52.3132 30.0483 51.1685 31.1506C50.0661 32.2106 48.5821 32.7406 46.7166 32.7406C44.8935 32.7406 43.4307 32.2106 42.3283 31.1506C41.2684 30.0483 40.7384 28.5855 40.7384 26.7624C40.7384 24.9816 41.2896 23.5401 42.3919 22.4377C43.5367 21.3354 45.0207 20.7842 46.8438 20.7842C48.6669 20.7842 50.1297 21.3354 51.2321 22.4377C52.3344 23.5401 52.8856 24.9816 52.8856 26.7624Z" fill="white"/>
<path d="M51.6772 64.8575C51.6772 66.087 51.974 66.9774 52.5676 67.5286C53.2036 68.0373 54.1576 68.2917 55.4295 68.2917C55.4295 69.6061 54.9419 70.7509 53.9668 71.726H39.5937C38.6185 70.7509 38.1309 69.6061 38.1309 68.2917C39.4029 68.2917 40.3144 68.0373 40.8656 67.5286C41.4592 66.9774 41.756 66.0658 41.756 64.7939V46.3505C41.756 45.1633 41.4592 44.3153 40.8656 43.8066C40.3144 43.2978 39.2121 43.0434 37.5585 43.0434V40.2451C38.5761 39.6091 40.2932 38.9519 42.71 38.2735C45.1691 37.5528 47.2466 37.1924 48.9425 37.1924C49.9177 37.1924 50.6173 37.4256 51.0413 37.892C51.4653 38.3159 51.6772 39.0579 51.6772 40.1179V64.8575Z" fill="white"/>
<path d="M94.0665 70.0089C93.4305 70.6449 92.2858 71.1536 90.6322 71.5352C89.0211 71.9168 87.4735 72.1076 85.9896 72.1076C84.1665 72.1076 82.8097 71.7684 81.9193 71.09C81.0714 70.4117 80.6474 69.3305 80.6474 67.8465V48.004C80.6474 46.3505 80.287 45.1633 79.5662 44.4425C78.8454 43.7218 77.8915 43.3614 76.7043 43.3614C74.966 43.3614 73.5032 44.061 72.316 45.4601V64.8575C72.316 66.087 72.5704 66.9774 73.0792 67.5286C73.6304 68.0797 74.542 68.3553 75.8139 68.3553C75.8139 69.6273 75.3263 70.7509 74.3512 71.726H59.9145C58.8969 70.7085 58.3881 69.5849 58.3881 68.3553C59.6601 68.3553 60.5716 68.0797 61.1228 67.5286C61.674 66.9774 61.9496 66.087 61.9496 64.8575V46.2869C61.9496 45.1421 61.6316 44.3365 60.9956 43.8702C60.3597 43.3614 59.2573 43.107 57.6885 43.107V40.2451C59.0453 39.4819 60.9532 38.7823 63.4123 38.1464C65.9139 37.5104 67.8006 37.1924 69.0726 37.1924C70.0477 37.1924 70.7897 37.5104 71.2985 38.1464C71.8497 38.7399 72.1677 39.8847 72.2524 41.5806C73.3548 40.2239 74.7328 39.1639 76.3863 38.4007C78.0399 37.5952 79.9054 37.1924 81.9829 37.1924C85.0356 37.1924 87.2827 37.9768 88.7243 39.5455C90.2082 41.0719 90.9502 43.5946 90.9502 47.1136V64.4759C90.9502 66.5534 91.9678 67.783 94.0029 68.1645L94.0665 70.0089Z" fill="white"/>
<path d="M132.062 69.5638C131.936 70.4541 131.343 71.1537 130.283 71.6625C129.265 72.1289 127.951 72.3621 126.34 72.3621C124.178 72.3621 122.376 71.8957 120.934 70.9629C119.535 70.0302 118.433 68.9066 117.626 67.5922C116.821 66.2779 115.952 64.5607 115.019 62.4408C114.087 60.3633 113.26 58.7733 112.539 57.671C111.861 56.5686 110.969 55.8054 109.868 55.3814V65.1119C109.868 66.3415 110.122 67.2319 110.631 67.783C111.182 68.2918 112.115 68.5462 113.429 68.5462C113.429 69.8606 112.921 70.9841 111.903 71.9169H97.9116C96.894 71.0265 96.3852 69.903 96.3852 68.5462C97.6572 68.5462 98.5476 68.2918 99.0564 67.783C99.6075 67.2319 99.8831 66.3415 99.8831 65.1119V30.6419C99.8831 29.5819 99.585 28.7975 98.9928 28.2887C98.3979 27.7376 97.2756 27.462 95.6221 27.462V24.9181C97.1484 24.1125 99.0762 23.3917 101.409 22.7557C103.784 22.1197 105.649 21.8018 107.006 21.8018C108.024 21.8018 108.744 22.035 109.167 22.5013C109.635 22.9677 109.868 23.7309 109.868 24.7909V53.0919L116.864 45.8418C117.669 45.0362 118.072 44.4002 118.072 43.9338C118.072 43.3402 117.606 42.7891 116.673 42.2803C115.783 41.7715 114.913 41.5171 114.065 41.5171C114.065 40.7963 114.193 40.0968 114.447 39.4184C114.701 38.74 115.062 38.1464 115.528 37.6376H129.838C130.643 38.4432 131.045 39.7364 131.045 41.5171C130.027 41.5171 129.223 41.6655 128.629 41.9623C128.078 42.2591 127.506 42.6831 126.912 43.2342L117.245 52.7739C118.814 53.0283 120.128 53.5583 121.188 54.3639C122.291 55.1271 123.287 56.3142 124.178 57.9254C125.236 59.8333 125.789 60.8297 125.831 60.9145C127.23 63.5008 128.269 65.2391 128.947 66.1295C129.668 66.9775 130.686 67.6134 132 68.0374L132.062 69.5638Z" fill="white"/>
</g>
<path fill-rule="evenodd" clip-rule="evenodd" d="M183.201 64.3517C185.17 67.9394 184.96 72.5036 182.296 75.9479C179.632 79.3923 175.268 80.7451 171.3 79.7408C171.068 79.6819 170.889 79.946 171.032 80.139C171.774 81.1403 172.709 82.0322 173.832 82.7562C178.207 85.5771 184.098 84.7458 187.526 80.8273C191.587 76.1859 190.85 69.1579 186.045 65.4415C185.254 64.8296 184.403 64.348 183.518 63.9919C183.295 63.9024 183.086 64.1419 183.201 64.3517Z" fill="white"/>
<path fill-rule="evenodd" clip-rule="evenodd" d="M198.585 14.9677C199.73 15.154 200.81 14.3766 200.996 13.2313C201.182 12.0857 200.404 11.0064 199.258 10.8201C198.114 10.6338 197.035 11.411 196.849 12.5564C196.662 13.7017 197.439 14.7813 198.585 14.9677Z" fill="white"/>
<path fill-rule="evenodd" clip-rule="evenodd" d="M164.134 83.3462C163.303 83.2109 162.52 83.7751 162.385 84.606C162.25 85.4371 162.814 86.2204 163.645 86.3555C164.476 86.4908 165.26 85.9267 165.394 85.0958C165.53 84.2647 164.966 83.4815 164.134 83.3462Z" fill="white"/>
<path fill-rule="evenodd" clip-rule="evenodd" d="M166.468 11.3886C165.638 11.2535 164.854 11.8175 164.718 12.6486C164.583 13.4796 165.147 14.2628 165.979 14.3981C166.81 14.5334 167.593 13.9692 167.727 13.1382C167.863 12.3071 167.299 11.5238 166.468 11.3886Z" fill="white"/>
<path fill-rule="evenodd" clip-rule="evenodd" d="M174.124 33.5444C173.294 33.4093 172.51 33.9734 172.374 34.8043C172.24 35.6354 172.804 36.4188 173.635 36.5539C174.466 36.6892 175.249 36.125 175.385 35.294C175.519 34.4631 174.955 33.6797 174.124 33.5444Z" fill="white"/>
<path fill-rule="evenodd" clip-rule="evenodd" d="M194.084 32.619C193.584 32.5376 193.112 32.8772 193.03 33.3773C192.95 33.8775 193.29 34.3489 193.789 34.4303C194.289 34.5117 194.761 34.1721 194.843 33.672C194.923 33.1718 194.583 32.7003 194.084 32.619Z" fill="white"/>
<path fill-rule="evenodd" clip-rule="evenodd" d="M184.173 12.2717C184.674 12.3532 185.144 12.0137 185.226 11.5136C185.308 11.0136 184.968 10.5421 184.469 10.4608C183.967 10.3795 183.497 10.7188 183.415 11.2189C183.333 11.7189 183.673 12.1904 184.173 12.2717Z" fill="white"/>
<path fill-rule="evenodd" clip-rule="evenodd" d="M194.038 68.8304C194.538 68.9119 195.01 68.5724 195.09 68.0721C195.172 67.5721 194.832 67.1007 194.333 67.0194C193.833 66.9379 193.361 67.2775 193.279 67.7775C193.199 68.2778 193.539 68.7491 194.038 68.8304Z" fill="white"/>
<path fill-rule="evenodd" clip-rule="evenodd" d="M175.756 88.8099C175.256 88.7286 174.784 89.0681 174.702 89.5682C174.621 90.0684 174.96 90.5398 175.462 90.6211C175.961 90.7026 176.433 90.363 176.513 89.8628C176.595 89.3627 176.255 88.8912 175.756 88.8099Z" fill="white"/>
<path fill-rule="evenodd" clip-rule="evenodd" d="M202.255 90.2129C202.757 90.2942 203.227 89.9546 203.308 89.4546C203.39 88.9545 203.051 88.483 202.551 88.4017C202.05 88.3204 201.579 88.6597 201.498 89.16C201.416 89.66 201.755 90.1314 202.255 90.2129Z" fill="white"/>
<path fill-rule="evenodd" clip-rule="evenodd" d="M184.639 57.995C184.775 57.1641 184.211 56.3807 183.379 56.2456C182.548 56.1103 181.765 56.6743 181.629 57.5054C181.495 58.3365 182.059 59.1198 182.89 59.255C183.72 59.3902 184.504 58.8261 184.639 57.995Z" fill="white"/>
<path fill-rule="evenodd" clip-rule="evenodd" d="M188.228 87.8899C188.054 88.9584 188.778 89.9654 189.847 90.1393C190.916 90.3131 191.923 89.5879 192.097 88.5193C192.271 87.4509 191.545 86.4438 190.478 86.2699C189.409 86.0961 188.402 86.8213 188.228 87.8899Z" fill="white"/>
<path fill-rule="evenodd" clip-rule="evenodd" d="M193.936 79.8069C193.936 79.9661 194.051 80.093 194.193 80.1078L196.312 80.8983C196.372 80.9199 196.415 80.9679 196.431 81.0275L197.166 83.789C197.188 83.9398 197.312 84.0474 197.465 84.0474C197.47 84.0474 197.474 84.0455 197.477 84.0453C197.482 84.0455 197.486 84.0474 197.489 84.0474C197.644 84.0474 197.768 83.9398 197.791 83.789L198.525 81.0275C198.541 80.9679 198.585 80.9199 198.642 80.8983L200.763 80.1078C200.904 80.093 201.019 79.9661 201.019 79.8069C201.019 79.6478 200.904 79.5208 200.763 79.506L198.642 78.7155C198.585 78.6939 198.541 78.6459 198.525 78.5862L197.791 75.8248C197.768 75.674 197.644 75.5664 197.489 75.5664C197.486 75.5664 197.482 75.5683 197.477 75.5685C197.474 75.5683 197.47 75.5664 197.465 75.5664C197.312 75.5664 197.188 75.674 197.166 75.8248L196.431 78.5862C196.415 78.6459 196.372 78.6939 196.312 78.7155L194.193 79.506C194.051 79.5208 193.936 79.6478 193.936 79.8069Z" fill="white"/>
<path fill-rule="evenodd" clip-rule="evenodd" d="M172.832 71.5472L173.567 74.3085C173.59 74.4595 173.713 74.5671 173.868 74.5671C173.872 74.5671 173.875 74.5652 173.879 74.565C173.884 74.5652 173.888 74.5671 173.891 74.5671C174.046 74.5671 174.17 74.4595 174.192 74.3085L174.927 71.5472C174.943 71.4876 174.986 71.4394 175.044 71.418L177.164 70.6273C177.305 70.6127 177.42 70.4856 177.42 70.3266C177.42 70.1675 177.305 70.0405 177.164 70.0257L175.044 69.2352C174.986 69.2136 174.943 69.1654 174.927 69.1059L174.192 66.3445C174.17 66.1937 174.046 66.0859 173.891 66.0859C173.888 66.0859 173.884 66.0879 173.879 66.088C173.875 66.0879 173.872 66.0859 173.868 66.0859C173.713 66.0859 173.59 66.1937 173.567 66.3445L172.832 69.1059C172.817 69.1654 172.773 69.2136 172.714 69.2352L170.595 70.0257C170.452 70.0405 170.339 70.1675 170.339 70.3266C170.339 70.4856 170.452 70.6127 170.595 70.6273L172.714 71.418C172.773 71.4394 172.817 71.4876 172.832 71.5472Z" fill="white"/>
<path fill-rule="evenodd" clip-rule="evenodd" d="M186.28 42.2089C186.28 42.0498 186.165 41.9229 186.022 41.9081L183.903 41.1176C183.845 41.096 183.8 41.0477 183.784 40.9882L183.05 38.2268C183.027 38.076 182.903 37.9683 182.75 37.9683C182.745 37.9683 182.741 37.9704 182.738 37.9705C182.733 37.9704 182.729 37.9683 182.726 37.9683C182.571 37.9683 182.447 38.076 182.425 38.2268L181.69 40.9882C181.674 41.0477 181.631 41.096 181.573 41.1176L179.452 41.9081C179.311 41.9229 179.196 42.0498 179.196 42.2089C179.196 42.3679 179.311 42.495 179.452 42.5096L181.573 43.3003C181.631 43.3217 181.674 43.37 181.69 43.4295L182.425 46.1911C182.447 46.3418 182.571 46.4494 182.726 46.4494C182.729 46.4494 182.733 46.4475 182.738 46.4474C182.741 46.4475 182.745 46.4494 182.75 46.4494C182.903 46.4494 183.027 46.3418 183.05 46.1911L183.784 43.4295C183.8 43.37 183.845 43.3217 183.903 43.3003L186.022 42.5096C186.165 42.495 186.28 42.3679 186.28 42.2089Z" fill="white"/>
<path fill-rule="evenodd" clip-rule="evenodd" d="M209.862 94.7384V89.7246C209.862 81.8175 206.706 74.1633 200.733 67.5895L186.335 51.7393C186.205 51.5967 186.205 51.3824 186.335 51.2398L200.733 35.3899C206.706 28.8158 209.862 21.1617 209.862 13.2551V8.24113H214.053V25.2967C214.053 25.3118 214.057 25.3259 214.059 25.3409C212.31 25.6007 210.97 27.1028 210.97 28.9224C210.97 30.7417 212.31 32.2439 214.059 32.5038C214.057 32.5185 214.053 32.5327 214.053 32.5477V39.4331C213.996 39.4695 213.942 39.5114 213.893 39.5607L213.832 39.6203L208.304 50.3462C207.985 50.7361 208.008 51.3129 208.372 51.6763L213.893 57.1977C213.942 57.2474 213.996 57.2903 214.053 57.3279V63.3878C214.053 63.4 214.057 63.4113 214.057 63.4233C211.854 63.689 210.146 65.5617 210.146 67.8365C210.146 70.1114 211.854 71.9841 214.057 72.2499C214.057 72.2618 214.053 72.2731 214.053 72.2853V94.7201C214.053 94.7263 214.055 94.7323 214.055 94.7384H209.862ZM217.363 97.2284V99.4998C217.363 100.277 216.731 100.908 215.955 100.908H150.314C149.537 100.908 148.905 100.277 148.905 99.4998V97.2284C148.905 96.4517 149.537 95.82 150.314 95.82H215.955C216.731 95.82 217.363 96.4517 217.363 97.2284ZM152.211 72.2499C154.414 71.9841 156.123 70.1114 156.123 67.8365C156.123 65.5617 154.414 63.6892 152.211 63.4233C152.212 63.4113 152.215 63.4 152.215 63.3878V57.3279C152.272 57.2905 152.327 57.2476 152.376 57.198L157.898 51.6763C158.261 51.3129 158.283 50.7361 157.965 50.3462L152.436 39.6203L152.376 39.5604C152.326 39.5106 152.272 39.4677 152.215 39.4307V32.5477C152.215 32.5327 152.212 32.5185 152.21 32.5038C153.958 32.2439 155.3 30.7417 155.3 28.9224C155.3 27.1028 153.958 25.6007 152.21 25.3409C152.212 25.3259 152.215 25.3118 152.215 25.2967V8.24113H156.407V13.2551C156.407 21.1613 159.564 28.8155 165.535 35.3899L179.935 51.2398C180.063 51.3824 180.063 51.5967 179.935 51.7393L165.535 67.5895C159.564 74.1637 156.407 81.8178 156.407 89.7246V94.7384H152.213C152.213 94.7323 152.215 94.7263 152.215 94.7201V72.2853C152.215 72.2731 152.212 72.2618 152.211 72.2499ZM146.277 50.9732L151.674 40.5029L157.072 50.9732L151.674 56.3706L146.277 50.9732ZM185.534 52.4668L199.932 68.3168C205.722 74.6883 208.781 82.0912 208.781 89.7246V94.7384H157.489V89.7246C157.489 82.0915 160.548 74.6887 166.336 68.3168L180.736 52.4668C181.242 51.9098 181.242 51.0693 180.736 50.5123L166.336 34.6624C160.548 28.2905 157.489 20.8881 157.489 13.2551V8.24113H208.781V13.2551C208.781 20.8881 205.722 28.2908 199.932 34.6624L185.534 50.5123C185.028 51.0693 185.028 51.9098 185.534 52.4668ZM148.905 5.75122V3.47983C148.905 2.70308 149.537 2.07138 150.314 2.07138H215.955C216.731 2.07138 217.363 2.70308 217.363 3.47983V5.75122C217.363 6.52797 216.731 7.1595 215.955 7.1595H150.314C149.537 7.1595 148.905 6.52797 148.905 5.75122ZM219.993 50.9732L214.595 56.3706L209.197 50.9732L214.595 40.5032L219.993 50.9732ZM215.136 57.3279C215.192 57.2905 215.248 57.2476 215.297 57.198L220.82 51.676C221.182 51.3128 221.204 50.7361 220.886 50.3462L215.356 39.6203L215.297 39.5607C215.248 39.5114 215.194 39.4695 215.136 39.4331V32.5477C215.136 32.5327 215.133 32.5185 215.131 32.5038C216.878 32.2439 218.22 30.7419 218.22 28.9224C218.22 27.1028 216.878 25.6007 215.131 25.3409C215.133 25.3259 215.136 25.3118 215.136 25.2967V8.24113H215.955C217.329 8.24113 218.445 7.12433 218.445 5.75122V3.47983C218.445 2.10672 217.329 0.989746 215.955 0.989746H150.314C148.941 0.989746 147.824 2.10672 147.824 3.47983V5.75122C147.824 7.12433 148.941 8.24113 150.314 8.24113H151.133V25.2967C151.133 25.3118 151.136 25.3259 151.138 25.3409C149.39 25.6007 148.048 27.1028 148.048 28.9224C148.048 30.7419 149.39 32.2439 151.138 32.5038C151.136 32.5185 151.133 32.5327 151.133 32.5477V39.4307C151.076 39.4677 151.022 39.5106 150.972 39.5604L150.912 39.6203L145.383 50.3462C145.065 50.7361 145.087 51.3129 145.45 51.6763L150.972 57.198C151.021 57.2476 151.076 57.2905 151.133 57.3279V63.3878C151.133 63.4 151.136 63.4113 151.137 63.4233C148.934 63.689 147.225 65.5617 147.225 67.8365C147.225 70.1114 148.934 71.9841 151.137 72.2499C151.136 72.2618 151.133 72.2731 151.133 72.2853V94.7201C151.133 94.7263 151.135 94.7323 151.135 94.7384H150.314C148.941 94.7384 147.824 95.8552 147.824 97.2284V99.4998C147.824 100.873 148.941 101.99 150.314 101.99H215.955C217.329 101.99 218.445 100.873 218.445 99.4998V97.2284C218.445 95.8552 217.329 94.7384 215.955 94.7384H215.133C215.135 94.7323 215.136 94.7263 215.136 94.7201V72.2853C215.136 72.2731 215.133 72.2618 215.131 72.2499C217.336 71.9841 219.044 70.1114 219.044 67.8365C219.044 65.5617 217.336 63.689 215.131 63.4233C215.133 63.4113 215.136 63.4 215.136 63.3878V57.3279Z" fill="white" stroke="white" stroke-width="1.97945" stroke-miterlimit="2" stroke-linejoin="round"/>
<path fill-rule="evenodd" clip-rule="evenodd" d="M181.575 31.021C177.544 30.5696 173.473 28.3012 169.447 24.2599C173.527 20.1639 177.654 17.8897 181.737 17.4818C180.3 18.5474 179.278 21.2013 179.278 24.3149C179.278 27.3094 180.222 29.8807 181.575 31.021ZM184.551 17.4959C188.597 17.942 192.715 20.2116 196.816 24.2597C192.767 28.2561 188.703 30.5218 184.709 31.0088C186.053 29.8624 186.99 27.2993 186.99 24.3149C186.99 21.2158 185.978 18.5712 184.551 17.4959ZM183.072 32.1931C187.981 32.1931 192.955 29.6895 197.862 24.7513C197.994 24.6172 198.033 24.4319 197.998 24.2596C198.033 24.0873 197.994 23.9024 197.862 23.7685C192.955 18.83 187.981 16.3267 183.072 16.3267H183.01C178.122 16.3477 173.208 18.8526 168.404 23.7717C168.272 23.9059 168.236 24.0891 168.272 24.2599C168.236 24.4305 168.272 24.6139 168.404 24.7481C173.208 29.6672 178.122 32.1721 183.01 32.1928C183.031 32.1928 183.051 32.1931 183.072 32.1931Z" fill="white" stroke="white" stroke-width="1.31964" stroke-miterlimit="2" stroke-linejoin="round"/>
<path d="M101.287 123.498C100.385 123.498 99.5692 123.656 98.8408 123.973C98.1123 124.274 97.4947 124.725 96.988 125.327C96.4812 125.913 96.0933 126.633 95.8241 127.488C95.5549 128.328 95.4203 129.278 95.4203 130.339C95.4203 131.732 95.634 132.944 96.0616 133.973C96.505 135.002 97.1543 135.794 98.0094 136.348C98.8803 136.903 99.9651 137.18 101.264 137.18C102.008 137.18 102.713 137.117 103.378 136.99C104.043 136.863 104.692 136.705 105.325 136.515V138.368C104.692 138.605 104.035 138.779 103.354 138.89C102.689 139.001 101.889 139.056 100.955 139.056C99.2287 139.056 97.7877 138.7 96.6317 137.987C95.4757 137.275 94.6047 136.261 94.0188 134.947C93.4487 133.633 93.1637 132.089 93.1637 130.315C93.1637 129.032 93.3379 127.861 93.6863 126.8C94.0505 125.739 94.5731 124.82 95.254 124.044C95.9508 123.268 96.8059 122.674 97.8194 122.263C98.8328 121.835 99.9968 121.621 101.311 121.621C102.182 121.621 103.021 121.708 103.829 121.883C104.637 122.057 105.357 122.302 105.991 122.619L105.135 124.424C104.613 124.187 104.027 123.973 103.378 123.783C102.744 123.593 102.047 123.498 101.287 123.498ZM119.811 132.429C119.811 133.49 119.669 134.432 119.384 135.256C119.114 136.063 118.718 136.752 118.196 137.322C117.689 137.892 117.064 138.328 116.319 138.629C115.591 138.914 114.775 139.056 113.873 139.056C113.034 139.056 112.258 138.914 111.545 138.629C110.832 138.328 110.215 137.892 109.692 137.322C109.17 136.752 108.758 136.063 108.457 135.256C108.172 134.432 108.029 133.49 108.029 132.429C108.029 131.02 108.267 129.832 108.742 128.866C109.217 127.884 109.898 127.14 110.785 126.633C111.672 126.111 112.725 125.849 113.944 125.849C115.1 125.849 116.114 126.111 116.984 126.633C117.871 127.14 118.56 127.884 119.051 128.866C119.558 129.832 119.811 131.02 119.811 132.429ZM110.191 132.429C110.191 133.427 110.318 134.298 110.571 135.042C110.84 135.77 111.252 136.333 111.806 136.729C112.36 137.124 113.065 137.322 113.92 137.322C114.775 137.322 115.48 137.124 116.034 136.729C116.589 136.333 116.992 135.77 117.246 135.042C117.515 134.298 117.65 133.427 117.65 132.429C117.65 131.416 117.515 130.553 117.246 129.84C116.977 129.127 116.565 128.581 116.011 128.201C115.472 127.805 114.768 127.607 113.897 127.607C112.598 127.607 111.656 128.035 111.07 128.89C110.484 129.745 110.191 130.925 110.191 132.429ZM125.214 138.819H123.124V120.766H125.214V138.819ZM140.317 132.429C140.317 133.49 140.175 134.432 139.89 135.256C139.62 136.063 139.224 136.752 138.702 137.322C138.195 137.892 137.57 138.328 136.825 138.629C136.097 138.914 135.281 139.056 134.379 139.056C133.539 139.056 132.763 138.914 132.051 138.629C131.338 138.328 130.721 137.892 130.198 137.322C129.676 136.752 129.264 136.063 128.963 135.256C128.678 134.432 128.535 133.49 128.535 132.429C128.535 131.02 128.773 129.832 129.248 128.866C129.723 127.884 130.404 127.14 131.291 126.633C132.178 126.111 133.231 125.849 134.45 125.849C135.606 125.849 136.619 126.111 137.49 126.633C138.377 127.14 139.066 127.884 139.557 128.866C140.064 129.832 140.317 131.02 140.317 132.429ZM130.697 132.429C130.697 133.427 130.824 134.298 131.077 135.042C131.346 135.77 131.758 136.333 132.312 136.729C132.866 137.124 133.571 137.322 134.426 137.322C135.281 137.322 135.986 137.124 136.54 136.729C137.095 136.333 137.498 135.77 137.752 135.042C138.021 134.298 138.155 133.427 138.155 132.429C138.155 131.416 138.021 130.553 137.752 129.84C137.482 129.127 137.071 128.581 136.517 128.201C135.978 127.805 135.273 127.607 134.402 127.607C133.104 127.607 132.162 128.035 131.576 128.89C130.99 129.745 130.697 130.925 130.697 132.429ZM149.568 125.849C149.806 125.849 150.059 125.865 150.328 125.897C150.613 125.913 150.859 125.944 151.065 125.992L150.803 127.916C150.598 127.869 150.368 127.829 150.115 127.797C149.877 127.766 149.647 127.75 149.426 127.75C148.935 127.75 148.468 127.853 148.024 128.059C147.581 128.264 147.185 128.557 146.837 128.937C146.488 129.302 146.211 129.745 146.005 130.268C145.815 130.79 145.72 131.376 145.72 132.025V138.819H143.63V126.087H145.34L145.578 128.415H145.673C145.942 127.94 146.267 127.512 146.647 127.132C147.027 126.736 147.462 126.427 147.953 126.206C148.444 125.968 148.982 125.849 149.568 125.849ZM161.732 135.303C161.732 136.127 161.526 136.816 161.115 137.37C160.703 137.924 160.117 138.344 159.357 138.629C158.597 138.914 157.694 139.056 156.649 139.056C155.762 139.056 154.994 138.985 154.345 138.843C153.711 138.7 153.149 138.502 152.658 138.249V136.348C153.165 136.602 153.775 136.839 154.487 137.061C155.216 137.267 155.952 137.37 156.696 137.37C157.757 137.37 158.525 137.204 159 136.871C159.476 136.523 159.713 136.063 159.713 135.493C159.713 135.177 159.626 134.892 159.452 134.638C159.278 134.385 158.961 134.132 158.502 133.878C158.058 133.625 157.417 133.34 156.578 133.023C155.754 132.706 155.049 132.39 154.464 132.073C153.878 131.756 153.426 131.376 153.11 130.933C152.793 130.489 152.635 129.919 152.635 129.222C152.635 128.146 153.07 127.314 153.941 126.728C154.828 126.142 155.984 125.849 157.409 125.849C158.185 125.849 158.905 125.929 159.571 126.087C160.251 126.23 160.885 126.435 161.471 126.705L160.758 128.367C160.41 128.209 160.038 128.074 159.642 127.964C159.262 127.837 158.874 127.742 158.478 127.678C158.082 127.599 157.678 127.56 157.266 127.56C156.411 127.56 155.754 127.702 155.295 127.987C154.852 128.256 154.63 128.629 154.63 129.104C154.63 129.452 154.733 129.753 154.939 130.006C155.144 130.244 155.485 130.481 155.96 130.719C156.451 130.941 157.1 131.21 157.908 131.527C158.715 131.827 159.404 132.136 159.974 132.453C160.544 132.77 160.98 133.158 161.281 133.617C161.582 134.06 161.732 134.622 161.732 135.303ZM164.5 137.536C164.5 136.95 164.642 136.539 164.927 136.301C165.212 136.063 165.553 135.945 165.949 135.945C166.36 135.945 166.709 136.063 166.994 136.301C167.295 136.539 167.445 136.95 167.445 137.536C167.445 138.106 167.295 138.518 166.994 138.771C166.709 139.025 166.36 139.151 165.949 139.151C165.553 139.151 165.212 139.025 164.927 138.771C164.642 138.518 164.5 138.106 164.5 137.536ZM184.888 123.498C183.986 123.498 183.17 123.656 182.442 123.973C181.713 124.274 181.096 124.725 180.589 125.327C180.082 125.913 179.694 126.633 179.425 127.488C179.156 128.328 179.021 129.278 179.021 130.339C179.021 131.732 179.235 132.944 179.663 133.973C180.106 135.002 180.755 135.794 181.61 136.348C182.481 136.903 183.566 137.18 184.865 137.18C185.609 137.18 186.314 137.117 186.979 136.99C187.644 136.863 188.293 136.705 188.926 136.515V138.368C188.293 138.605 187.636 138.779 186.955 138.89C186.29 139.001 185.49 139.056 184.556 139.056C182.83 139.056 181.389 138.7 180.233 137.987C179.077 137.275 178.206 136.261 177.62 134.947C177.05 133.633 176.765 132.089 176.765 130.315C176.765 129.032 176.939 127.861 177.287 126.8C177.651 125.739 178.174 124.82 178.855 124.044C179.552 123.268 180.407 122.674 181.42 122.263C182.434 121.835 183.598 121.621 184.912 121.621C185.783 121.621 186.622 121.708 187.43 121.883C188.238 122.057 188.958 122.302 189.592 122.619L188.736 124.424C188.214 124.187 187.628 123.973 186.979 123.783C186.345 123.593 185.648 123.498 184.888 123.498ZM202.985 126.087V138.819H201.274L200.966 137.132H200.871C200.601 137.576 200.253 137.94 199.825 138.225C199.398 138.51 198.931 138.716 198.424 138.843C197.917 138.985 197.387 139.056 196.832 139.056C195.819 139.056 194.964 138.898 194.267 138.581C193.586 138.249 193.071 137.742 192.723 137.061C192.375 136.38 192.201 135.501 192.201 134.424V126.087H194.315V134.282C194.315 135.295 194.544 136.056 195.003 136.562C195.463 137.069 196.175 137.322 197.141 137.322C198.091 137.322 198.836 137.148 199.374 136.8C199.928 136.436 200.316 135.913 200.538 135.232C200.776 134.535 200.894 133.696 200.894 132.714V126.087H202.985ZM211.278 137.346C211.595 137.346 211.92 137.322 212.252 137.275C212.585 137.212 212.854 137.148 213.06 137.085V138.676C212.838 138.787 212.522 138.874 212.11 138.938C211.698 139.017 211.302 139.056 210.922 139.056C210.257 139.056 209.639 138.946 209.069 138.724C208.515 138.486 208.064 138.082 207.715 137.512C207.367 136.942 207.193 136.143 207.193 135.113V127.702H205.388V126.705L207.217 125.873L208.048 123.165H209.283V126.087H212.965V127.702H209.283V135.066C209.283 135.842 209.465 136.42 209.829 136.8C210.21 137.164 210.693 137.346 211.278 137.346ZM223.899 135.303C223.899 136.127 223.693 136.816 223.282 137.37C222.87 137.924 222.284 138.344 221.524 138.629C220.764 138.914 219.861 139.056 218.816 139.056C217.929 139.056 217.161 138.985 216.512 138.843C215.879 138.7 215.316 138.502 214.826 138.249V136.348C215.332 136.602 215.942 136.839 216.655 137.061C217.383 137.267 218.119 137.37 218.864 137.37C219.925 137.37 220.693 137.204 221.168 136.871C221.643 136.523 221.88 136.063 221.88 135.493C221.88 135.177 221.793 134.892 221.619 134.638C221.445 134.385 221.128 134.132 220.669 133.878C220.225 133.625 219.584 133.34 218.745 133.023C217.921 132.706 217.217 132.39 216.631 132.073C216.045 131.756 215.594 131.376 215.277 130.933C214.96 130.489 214.802 129.919 214.802 129.222C214.802 128.146 215.237 127.314 216.108 126.728C216.995 126.142 218.151 125.849 219.576 125.849C220.352 125.849 221.073 125.929 221.738 126.087C222.419 126.23 223.052 126.435 223.638 126.705L222.925 128.367C222.577 128.209 222.205 128.074 221.809 127.964C221.429 127.837 221.041 127.742 220.645 127.678C220.249 127.599 219.845 127.56 219.434 127.56C218.579 127.56 217.921 127.702 217.462 127.987C217.019 128.256 216.797 128.629 216.797 129.104C216.797 129.452 216.9 129.753 217.106 130.006C217.312 130.244 217.652 130.481 218.127 130.719C218.618 130.941 219.267 131.21 220.075 131.527C220.883 131.827 221.571 132.136 222.142 132.453C222.712 132.77 223.147 133.158 223.448 133.617C223.749 134.06 223.899 134.622 223.899 135.303ZM226.667 137.536C226.667 136.95 226.809 136.539 227.095 136.301C227.38 136.063 227.72 135.945 228.116 135.945C228.528 135.945 228.876 136.063 229.161 136.301C229.462 136.539 229.612 136.95 229.612 137.536C229.612 138.106 229.462 138.518 229.161 138.771C228.876 139.025 228.528 139.151 228.116 139.151C227.72 139.151 227.38 139.025 227.095 138.771C226.809 138.518 226.667 138.106 226.667 137.536ZM245.155 138.819H243.018V123.735H237.72V121.859H250.429V123.735H245.155V138.819ZM257.456 125.849C257.694 125.849 257.947 125.865 258.216 125.897C258.501 125.913 258.747 125.944 258.953 125.992L258.691 127.916C258.486 127.869 258.256 127.829 258.003 127.797C257.765 127.766 257.535 127.75 257.314 127.75C256.823 127.75 256.356 127.853 255.912 128.059C255.469 128.264 255.073 128.557 254.725 128.937C254.376 129.302 254.099 129.745 253.893 130.268C253.703 130.79 253.608 131.376 253.608 132.025V138.819H251.518V126.087H253.228L253.466 128.415H253.561C253.83 127.94 254.155 127.512 254.535 127.132C254.915 126.736 255.35 126.427 255.841 126.206C256.332 125.968 256.87 125.849 257.456 125.849ZM263.42 126.087V138.819H261.33V126.087H263.42ZM262.399 121.313C262.716 121.313 262.993 121.423 263.23 121.645C263.484 121.851 263.61 122.184 263.61 122.643C263.61 123.086 263.484 123.419 263.23 123.64C262.993 123.862 262.716 123.973 262.399 123.973C262.051 123.973 261.758 123.862 261.52 123.64C261.283 123.419 261.164 123.086 261.164 122.643C261.164 122.184 261.283 121.851 261.52 121.645C261.758 121.423 262.051 121.313 262.399 121.313ZM281.421 125.849C282.862 125.849 283.939 126.222 284.652 126.966C285.364 127.694 285.72 128.882 285.72 130.529V138.819H283.654V130.624C283.654 129.626 283.44 128.874 283.013 128.367C282.601 127.861 281.952 127.607 281.065 127.607C279.83 127.607 278.943 127.964 278.404 128.676C277.882 129.389 277.621 130.426 277.621 131.788V138.819H275.554V130.624C275.554 129.959 275.459 129.405 275.269 128.961C275.079 128.502 274.794 128.161 274.414 127.94C274.034 127.718 273.543 127.607 272.941 127.607C272.086 127.607 271.413 127.789 270.922 128.154C270.431 128.502 270.075 129.017 269.853 129.698C269.647 130.378 269.544 131.218 269.544 132.215V138.819H267.454V126.087H269.141L269.449 127.821H269.568C269.837 127.378 270.162 127.013 270.542 126.728C270.938 126.427 271.373 126.206 271.848 126.063C272.324 125.921 272.814 125.849 273.321 125.849C274.303 125.849 275.119 126.024 275.768 126.372C276.433 126.72 276.916 127.259 277.217 127.987H277.335C277.763 127.259 278.341 126.72 279.069 126.372C279.814 126.024 280.598 125.849 281.421 125.849ZM297.943 135.303C297.943 136.127 297.737 136.816 297.326 137.37C296.914 137.924 296.328 138.344 295.568 138.629C294.808 138.914 293.905 139.056 292.86 139.056C291.973 139.056 291.205 138.985 290.556 138.843C289.923 138.7 289.36 138.502 288.869 138.249V136.348C289.376 136.602 289.986 136.839 290.698 137.061C291.427 137.267 292.163 137.37 292.908 137.37C293.969 137.37 294.737 137.204 295.212 136.871C295.687 136.523 295.924 136.063 295.924 135.493C295.924 135.177 295.837 134.892 295.663 134.638C295.489 134.385 295.172 134.132 294.713 133.878C294.269 133.625 293.628 133.34 292.789 133.023C291.965 132.706 291.261 132.39 290.675 132.073C290.089 131.756 289.637 131.376 289.321 130.933C289.004 130.489 288.846 129.919 288.846 129.222C288.846 128.146 289.281 127.314 290.152 126.728C291.039 126.142 292.195 125.849 293.62 125.849C294.396 125.849 295.117 125.929 295.782 126.087C296.463 126.23 297.096 126.435 297.682 126.705L296.969 128.367C296.621 128.209 296.249 128.074 295.853 127.964C295.473 127.837 295.085 127.742 294.689 127.678C294.293 127.599 293.889 127.56 293.478 127.56C292.623 127.56 291.965 127.702 291.506 127.987C291.063 128.256 290.841 128.629 290.841 129.104C290.841 129.452 290.944 129.753 291.15 130.006C291.356 130.244 291.696 130.481 292.171 130.719C292.662 130.941 293.311 131.21 294.119 131.527C294.927 131.827 295.615 132.136 296.186 132.453C296.756 132.77 297.191 133.158 297.492 133.617C297.793 134.06 297.943 134.622 297.943 135.303ZM300.711 137.536C300.711 136.95 300.853 136.539 301.138 136.301C301.424 136.063 301.764 135.945 302.16 135.945C302.572 135.945 302.92 136.063 303.205 136.301C303.506 136.539 303.656 136.95 303.656 137.536C303.656 138.106 303.506 138.518 303.205 138.771C302.92 139.025 302.572 139.151 302.16 139.151C301.764 139.151 301.424 139.025 301.138 138.771C300.853 138.518 300.711 138.106 300.711 137.536Z" fill="white"/>
<defs>
<clipPath id="clip0_1196_149">
<rect width="163.502" height="45.2181" fill="white" transform="translate(234.235 27.3823)"/>
</clipPath>
<clipPath id="clip1_1196_149">
<rect width="132.062" height="51.5778" fill="white" transform="translate(0 20.7842)"/>
</clipPath>
</defs>
</svg>
